<mxfile host="app.diagrams.net" modified="2022-09-07T17:50:46.443Z" agent="5.0 (Macintosh; Intel Mac OS X 10_15_7) AppleWebKit/605.1.15 (KHTML, like Gecko) Version/15.6.1 Safari/605.1.15" etag="JsKzAsfnAQjzXnP9CTkr" version="20.2.8" type="github">
  <diagram id="D8J47J05KhcmDfUMjtQ6" name="Page-1">
    <mxGraphModel dx="848" dy="598" grid="1" gridSize="10" guides="1" tooltips="1" connect="1" arrows="1" fold="1" page="1" pageScale="1" pageWidth="827" pageHeight="1169" math="0" shadow="0">
      <root>
        <mxCell id="0" />
        <mxCell id="1" parent="0" />
        <mxCell id="k7m_8FGUSV61DsyAJjcT-50" style="edgeStyle=none;rounded=0;orthogonalLoop=1;jettySize=auto;html=1;entryX=0.5;entryY=0;entryDx=0;entryDy=0;fontSize=20;endArrow=none;endFill=0;" edge="1" parent="1" target="k7m_8FGUSV61DsyAJjcT-18">
          <mxGeometry relative="1" as="geometry">
            <mxPoint x="360" y="160" as="sourcePoint" />
          </mxGeometry>
        </mxCell>
        <mxCell id="k7m_8FGUSV61DsyAJjcT-1" value="&lt;span style=&quot;font-size: 20px;&quot;&gt;âˆ…&lt;/span&gt;" style="rounded=1;whiteSpace=wrap;html=1;" vertex="1" parent="1">
          <mxGeometry x="336" y="120" width="54" height="40" as="geometry" />
        </mxCell>
        <mxCell id="k7m_8FGUSV61DsyAJjcT-2" value="&lt;font style=&quot;font-size: 20px;&quot;&gt;0&lt;/font&gt;" style="text;html=1;align=center;verticalAlign=middle;whiteSpace=wrap;rounded=0;fillColor=default;" vertex="1" parent="1">
          <mxGeometry x="326" y="110" width="26" height="20" as="geometry" />
        </mxCell>
        <mxCell id="k7m_8FGUSV61DsyAJjcT-18" value="&lt;span style=&quot;font-size: 20px;&quot;&gt;a&lt;/span&gt;" style="rounded=1;whiteSpace=wrap;html=1;" vertex="1" parent="1">
          <mxGeometry x="184" y="220" width="54" height="40" as="geometry" />
        </mxCell>
        <mxCell id="k7m_8FGUSV61DsyAJjcT-19" value="&lt;font style=&quot;font-size: 20px;&quot;&gt;4&lt;/font&gt;" style="text;html=1;align=center;verticalAlign=middle;whiteSpace=wrap;rounded=0;fillColor=default;" vertex="1" parent="1">
          <mxGeometry x="174" y="210" width="26" height="20" as="geometry" />
        </mxCell>
        <mxCell id="k7m_8FGUSV61DsyAJjcT-51" style="edgeStyle=none;rounded=0;orthogonalLoop=1;jettySize=auto;html=1;exitX=0.5;exitY=0;exitDx=0;exitDy=0;fontSize=20;endArrow=none;endFill=0;" edge="1" parent="1" source="k7m_8FGUSV61DsyAJjcT-20">
          <mxGeometry relative="1" as="geometry">
            <mxPoint x="360" y="160" as="targetPoint" />
          </mxGeometry>
        </mxCell>
        <mxCell id="k7m_8FGUSV61DsyAJjcT-20" value="&lt;span style=&quot;font-size: 20px;&quot;&gt;b&lt;/span&gt;" style="rounded=1;whiteSpace=wrap;html=1;" vertex="1" parent="1">
          <mxGeometry x="286" y="220" width="54" height="40" as="geometry" />
        </mxCell>
        <mxCell id="k7m_8FGUSV61DsyAJjcT-21" value="&lt;font style=&quot;font-size: 20px;&quot;&gt;3&lt;/font&gt;" style="text;html=1;align=center;verticalAlign=middle;whiteSpace=wrap;rounded=0;fillColor=default;" vertex="1" parent="1">
          <mxGeometry x="276" y="210" width="26" height="20" as="geometry" />
        </mxCell>
        <mxCell id="k7m_8FGUSV61DsyAJjcT-52" style="edgeStyle=none;rounded=0;orthogonalLoop=1;jettySize=auto;html=1;exitX=0.5;exitY=0;exitDx=0;exitDy=0;entryX=0.5;entryY=1;entryDx=0;entryDy=0;fontSize=20;endArrow=none;endFill=0;" edge="1" parent="1" source="k7m_8FGUSV61DsyAJjcT-22" target="k7m_8FGUSV61DsyAJjcT-1">
          <mxGeometry relative="1" as="geometry" />
        </mxCell>
        <mxCell id="k7m_8FGUSV61DsyAJjcT-62" style="edgeStyle=none;rounded=0;orthogonalLoop=1;jettySize=auto;html=1;exitX=0.5;exitY=1;exitDx=0;exitDy=0;fontSize=20;endArrow=none;endFill=0;" edge="1" parent="1" source="k7m_8FGUSV61DsyAJjcT-22">
          <mxGeometry relative="1" as="geometry">
            <mxPoint x="610" y="320" as="targetPoint" />
          </mxGeometry>
        </mxCell>
        <mxCell id="k7m_8FGUSV61DsyAJjcT-22" value="&lt;span style=&quot;font-size: 20px;&quot;&gt;c&lt;/span&gt;" style="rounded=1;whiteSpace=wrap;html=1;" vertex="1" parent="1">
          <mxGeometry x="388" y="220" width="54" height="40" as="geometry" />
        </mxCell>
        <mxCell id="k7m_8FGUSV61DsyAJjcT-23" value="&lt;font style=&quot;font-size: 20px;&quot;&gt;2&lt;/font&gt;" style="text;html=1;align=center;verticalAlign=middle;whiteSpace=wrap;rounded=0;fillColor=default;" vertex="1" parent="1">
          <mxGeometry x="378" y="210" width="26" height="20" as="geometry" />
        </mxCell>
        <mxCell id="k7m_8FGUSV61DsyAJjcT-53" style="edgeStyle=none;rounded=0;orthogonalLoop=1;jettySize=auto;html=1;exitX=0.5;exitY=0;exitDx=0;exitDy=0;fontSize=20;endArrow=none;endFill=0;" edge="1" parent="1" source="k7m_8FGUSV61DsyAJjcT-24">
          <mxGeometry relative="1" as="geometry">
            <mxPoint x="360" y="160" as="targetPoint" />
          </mxGeometry>
        </mxCell>
        <mxCell id="k7m_8FGUSV61DsyAJjcT-24" value="&lt;span style=&quot;font-size: 20px;&quot;&gt;d&lt;/span&gt;" style="rounded=1;whiteSpace=wrap;html=1;" vertex="1" parent="1">
          <mxGeometry x="484" y="220" width="54" height="40" as="geometry" />
        </mxCell>
        <mxCell id="k7m_8FGUSV61DsyAJjcT-25" value="&lt;font style=&quot;font-size: 20px;&quot;&gt;5&lt;/font&gt;" style="text;html=1;align=center;verticalAlign=middle;whiteSpace=wrap;rounded=0;fillColor=default;" vertex="1" parent="1">
          <mxGeometry x="474" y="210" width="26" height="20" as="geometry" />
        </mxCell>
        <mxCell id="k7m_8FGUSV61DsyAJjcT-54" style="edgeStyle=none;rounded=0;orthogonalLoop=1;jettySize=auto;html=1;exitX=0.5;exitY=0;exitDx=0;exitDy=0;entryX=0.5;entryY=1;entryDx=0;entryDy=0;fontSize=20;endArrow=none;endFill=0;" edge="1" parent="1" source="k7m_8FGUSV61DsyAJjcT-26" target="k7m_8FGUSV61DsyAJjcT-18">
          <mxGeometry relative="1" as="geometry" />
        </mxCell>
        <mxCell id="k7m_8FGUSV61DsyAJjcT-57" style="edgeStyle=none;rounded=0;orthogonalLoop=1;jettySize=auto;html=1;exitX=0.5;exitY=0;exitDx=0;exitDy=0;entryX=0.5;entryY=1;entryDx=0;entryDy=0;fontSize=20;endArrow=none;endFill=0;" edge="1" parent="1" source="k7m_8FGUSV61DsyAJjcT-26" target="k7m_8FGUSV61DsyAJjcT-20">
          <mxGeometry relative="1" as="geometry" />
        </mxCell>
        <mxCell id="k7m_8FGUSV61DsyAJjcT-66" style="edgeStyle=none;rounded=0;orthogonalLoop=1;jettySize=auto;html=1;exitX=0.5;exitY=1;exitDx=0;exitDy=0;entryX=0.5;entryY=0;entryDx=0;entryDy=0;fontSize=20;endArrow=none;endFill=0;" edge="1" parent="1" source="k7m_8FGUSV61DsyAJjcT-26" target="k7m_8FGUSV61DsyAJjcT-38">
          <mxGeometry relative="1" as="geometry" />
        </mxCell>
        <mxCell id="k7m_8FGUSV61DsyAJjcT-67" style="edgeStyle=none;rounded=0;orthogonalLoop=1;jettySize=auto;html=1;exitX=0.5;exitY=1;exitDx=0;exitDy=0;entryX=0.5;entryY=0;entryDx=0;entryDy=0;fontSize=20;endArrow=none;endFill=0;" edge="1" parent="1" source="k7m_8FGUSV61DsyAJjcT-26" target="k7m_8FGUSV61DsyAJjcT-40">
          <mxGeometry relative="1" as="geometry" />
        </mxCell>
        <mxCell id="k7m_8FGUSV61DsyAJjcT-26" value="&lt;span style=&quot;font-size: 20px;&quot;&gt;ab&lt;/span&gt;" style="rounded=1;whiteSpace=wrap;html=1;" vertex="1" parent="1">
          <mxGeometry x="80" y="320" width="54" height="40" as="geometry" />
        </mxCell>
        <mxCell id="k7m_8FGUSV61DsyAJjcT-27" value="&lt;font style=&quot;font-size: 20px;&quot;&gt;2&lt;/font&gt;" style="text;html=1;align=center;verticalAlign=middle;whiteSpace=wrap;rounded=0;fillColor=default;" vertex="1" parent="1">
          <mxGeometry x="70" y="310" width="26" height="20" as="geometry" />
        </mxCell>
        <mxCell id="k7m_8FGUSV61DsyAJjcT-55" style="edgeStyle=none;rounded=0;orthogonalLoop=1;jettySize=auto;html=1;exitX=0.5;exitY=0;exitDx=0;exitDy=0;fontSize=20;endArrow=none;endFill=0;" edge="1" parent="1" source="k7m_8FGUSV61DsyAJjcT-28">
          <mxGeometry relative="1" as="geometry">
            <mxPoint x="210" y="260" as="targetPoint" />
          </mxGeometry>
        </mxCell>
        <mxCell id="k7m_8FGUSV61DsyAJjcT-59" style="edgeStyle=none;rounded=0;orthogonalLoop=1;jettySize=auto;html=1;exitX=0.5;exitY=0;exitDx=0;exitDy=0;entryX=0.5;entryY=1;entryDx=0;entryDy=0;fontSize=20;endArrow=none;endFill=0;" edge="1" parent="1" source="k7m_8FGUSV61DsyAJjcT-28" target="k7m_8FGUSV61DsyAJjcT-22">
          <mxGeometry relative="1" as="geometry" />
        </mxCell>
        <mxCell id="k7m_8FGUSV61DsyAJjcT-70" style="edgeStyle=none;rounded=0;orthogonalLoop=1;jettySize=auto;html=1;exitX=0.5;exitY=1;exitDx=0;exitDy=0;entryX=0.5;entryY=0;entryDx=0;entryDy=0;fontSize=20;endArrow=none;endFill=0;" edge="1" parent="1" source="k7m_8FGUSV61DsyAJjcT-28" target="k7m_8FGUSV61DsyAJjcT-38">
          <mxGeometry relative="1" as="geometry" />
        </mxCell>
        <mxCell id="k7m_8FGUSV61DsyAJjcT-28" value="&lt;span style=&quot;font-size: 20px;&quot;&gt;ac&lt;/span&gt;" style="rounded=1;whiteSpace=wrap;html=1;" vertex="1" parent="1">
          <mxGeometry x="192" y="320" width="54" height="40" as="geometry" />
        </mxCell>
        <mxCell id="k7m_8FGUSV61DsyAJjcT-29" value="&lt;font style=&quot;font-size: 20px;&quot;&gt;1&lt;/font&gt;" style="text;html=1;align=center;verticalAlign=middle;whiteSpace=wrap;rounded=0;fillColor=default;" vertex="1" parent="1">
          <mxGeometry x="182" y="310" width="26" height="20" as="geometry" />
        </mxCell>
        <mxCell id="k7m_8FGUSV61DsyAJjcT-56" style="edgeStyle=none;rounded=0;orthogonalLoop=1;jettySize=auto;html=1;exitX=0.5;exitY=0;exitDx=0;exitDy=0;fontSize=20;endArrow=none;endFill=0;" edge="1" parent="1" source="k7m_8FGUSV61DsyAJjcT-30">
          <mxGeometry relative="1" as="geometry">
            <mxPoint x="210" y="260" as="targetPoint" />
          </mxGeometry>
        </mxCell>
        <mxCell id="k7m_8FGUSV61DsyAJjcT-60" style="edgeStyle=none;rounded=0;orthogonalLoop=1;jettySize=auto;html=1;exitX=0.5;exitY=0;exitDx=0;exitDy=0;entryX=0.5;entryY=1;entryDx=0;entryDy=0;fontSize=20;endArrow=none;endFill=0;" edge="1" parent="1" source="k7m_8FGUSV61DsyAJjcT-30" target="k7m_8FGUSV61DsyAJjcT-24">
          <mxGeometry relative="1" as="geometry" />
        </mxCell>
        <mxCell id="k7m_8FGUSV61DsyAJjcT-72" style="edgeStyle=none;rounded=0;orthogonalLoop=1;jettySize=auto;html=1;exitX=0.5;exitY=1;exitDx=0;exitDy=0;entryX=0.5;entryY=0;entryDx=0;entryDy=0;fontSize=20;endArrow=none;endFill=0;" edge="1" parent="1" source="k7m_8FGUSV61DsyAJjcT-30" target="k7m_8FGUSV61DsyAJjcT-40">
          <mxGeometry relative="1" as="geometry" />
        </mxCell>
        <mxCell id="k7m_8FGUSV61DsyAJjcT-73" style="edgeStyle=none;rounded=0;orthogonalLoop=1;jettySize=auto;html=1;exitX=0.5;exitY=1;exitDx=0;exitDy=0;entryX=0.5;entryY=0;entryDx=0;entryDy=0;fontSize=20;endArrow=none;endFill=0;" edge="1" parent="1" source="k7m_8FGUSV61DsyAJjcT-30" target="k7m_8FGUSV61DsyAJjcT-48">
          <mxGeometry relative="1" as="geometry" />
        </mxCell>
        <mxCell id="k7m_8FGUSV61DsyAJjcT-30" value="&lt;span style=&quot;font-size: 20px;&quot;&gt;ad&lt;/span&gt;" style="rounded=1;whiteSpace=wrap;html=1;" vertex="1" parent="1">
          <mxGeometry x="294" y="320" width="54" height="40" as="geometry" />
        </mxCell>
        <mxCell id="k7m_8FGUSV61DsyAJjcT-31" value="&lt;span style=&quot;font-size: 20px;&quot;&gt;3&lt;/span&gt;" style="text;html=1;align=center;verticalAlign=middle;whiteSpace=wrap;rounded=0;fillColor=default;" vertex="1" parent="1">
          <mxGeometry x="284" y="310" width="26" height="20" as="geometry" />
        </mxCell>
        <mxCell id="k7m_8FGUSV61DsyAJjcT-58" style="edgeStyle=none;rounded=0;orthogonalLoop=1;jettySize=auto;html=1;exitX=0.5;exitY=0;exitDx=0;exitDy=0;fontSize=20;endArrow=none;endFill=0;" edge="1" parent="1" source="k7m_8FGUSV61DsyAJjcT-32">
          <mxGeometry relative="1" as="geometry">
            <mxPoint x="310" y="260" as="targetPoint" />
          </mxGeometry>
        </mxCell>
        <mxCell id="k7m_8FGUSV61DsyAJjcT-65" style="edgeStyle=none;rounded=0;orthogonalLoop=1;jettySize=auto;html=1;exitX=0.5;exitY=0;exitDx=0;exitDy=0;entryX=0.5;entryY=1;entryDx=0;entryDy=0;fontSize=20;endArrow=none;endFill=0;" edge="1" parent="1" source="k7m_8FGUSV61DsyAJjcT-32" target="k7m_8FGUSV61DsyAJjcT-22">
          <mxGeometry relative="1" as="geometry" />
        </mxCell>
        <mxCell id="k7m_8FGUSV61DsyAJjcT-74" style="edgeStyle=none;rounded=0;orthogonalLoop=1;jettySize=auto;html=1;exitX=0.5;exitY=1;exitDx=0;exitDy=0;entryX=0.5;entryY=0;entryDx=0;entryDy=0;fontSize=20;endArrow=none;endFill=0;" edge="1" parent="1" source="k7m_8FGUSV61DsyAJjcT-32" target="k7m_8FGUSV61DsyAJjcT-38">
          <mxGeometry relative="1" as="geometry" />
        </mxCell>
        <mxCell id="k7m_8FGUSV61DsyAJjcT-75" style="edgeStyle=none;rounded=0;orthogonalLoop=1;jettySize=auto;html=1;exitX=0.5;exitY=1;exitDx=0;exitDy=0;entryX=0.5;entryY=0;entryDx=0;entryDy=0;fontSize=20;endArrow=none;endFill=0;" edge="1" parent="1" source="k7m_8FGUSV61DsyAJjcT-32" target="k7m_8FGUSV61DsyAJjcT-44">
          <mxGeometry relative="1" as="geometry" />
        </mxCell>
        <mxCell id="k7m_8FGUSV61DsyAJjcT-32" value="&lt;span style=&quot;font-size: 20px;&quot;&gt;bc&lt;/span&gt;" style="rounded=1;whiteSpace=wrap;html=1;" vertex="1" parent="1">
          <mxGeometry x="390" y="320" width="54" height="40" as="geometry" />
        </mxCell>
        <mxCell id="k7m_8FGUSV61DsyAJjcT-33" value="&lt;font style=&quot;font-size: 20px;&quot;&gt;1&lt;/font&gt;" style="text;html=1;align=center;verticalAlign=middle;whiteSpace=wrap;rounded=0;fillColor=default;" vertex="1" parent="1">
          <mxGeometry x="380" y="310" width="26" height="20" as="geometry" />
        </mxCell>
        <mxCell id="k7m_8FGUSV61DsyAJjcT-63" style="edgeStyle=none;rounded=0;orthogonalLoop=1;jettySize=auto;html=1;exitX=0.5;exitY=0;exitDx=0;exitDy=0;entryX=0.5;entryY=1;entryDx=0;entryDy=0;fontSize=20;endArrow=none;endFill=0;" edge="1" parent="1" source="k7m_8FGUSV61DsyAJjcT-34" target="k7m_8FGUSV61DsyAJjcT-24">
          <mxGeometry relative="1" as="geometry" />
        </mxCell>
        <mxCell id="k7m_8FGUSV61DsyAJjcT-64" style="edgeStyle=none;rounded=0;orthogonalLoop=1;jettySize=auto;html=1;exitX=0.5;exitY=0;exitDx=0;exitDy=0;fontSize=20;endArrow=none;endFill=0;" edge="1" parent="1" source="k7m_8FGUSV61DsyAJjcT-34">
          <mxGeometry relative="1" as="geometry">
            <mxPoint x="310" y="260" as="targetPoint" />
          </mxGeometry>
        </mxCell>
        <mxCell id="k7m_8FGUSV61DsyAJjcT-76" style="edgeStyle=none;rounded=0;orthogonalLoop=1;jettySize=auto;html=1;exitX=0.5;exitY=1;exitDx=0;exitDy=0;fontSize=20;endArrow=none;endFill=0;" edge="1" parent="1" source="k7m_8FGUSV61DsyAJjcT-34">
          <mxGeometry relative="1" as="geometry">
            <mxPoint x="511.16666666666674" y="420" as="targetPoint" />
          </mxGeometry>
        </mxCell>
        <mxCell id="k7m_8FGUSV61DsyAJjcT-77" style="edgeStyle=none;rounded=0;orthogonalLoop=1;jettySize=auto;html=1;exitX=0.5;exitY=1;exitDx=0;exitDy=0;fontSize=20;endArrow=none;endFill=0;" edge="1" parent="1" source="k7m_8FGUSV61DsyAJjcT-34">
          <mxGeometry relative="1" as="geometry">
            <mxPoint x="320" y="420" as="targetPoint" />
          </mxGeometry>
        </mxCell>
        <mxCell id="k7m_8FGUSV61DsyAJjcT-34" value="&lt;span style=&quot;font-size: 20px;&quot;&gt;bd&lt;/span&gt;" style="rounded=1;whiteSpace=wrap;html=1;" vertex="1" parent="1">
          <mxGeometry x="484" y="320" width="54" height="40" as="geometry" />
        </mxCell>
        <mxCell id="k7m_8FGUSV61DsyAJjcT-35" value="&lt;span style=&quot;font-size: 20px;&quot;&gt;3&lt;/span&gt;" style="text;html=1;align=center;verticalAlign=middle;whiteSpace=wrap;rounded=0;fillColor=default;" vertex="1" parent="1">
          <mxGeometry x="474" y="310" width="26" height="20" as="geometry" />
        </mxCell>
        <mxCell id="k7m_8FGUSV61DsyAJjcT-61" style="edgeStyle=none;rounded=0;orthogonalLoop=1;jettySize=auto;html=1;exitX=0.5;exitY=0;exitDx=0;exitDy=0;fontSize=20;endArrow=none;endFill=0;" edge="1" parent="1" source="k7m_8FGUSV61DsyAJjcT-36">
          <mxGeometry relative="1" as="geometry">
            <mxPoint x="510" y="260" as="targetPoint" />
          </mxGeometry>
        </mxCell>
        <mxCell id="k7m_8FGUSV61DsyAJjcT-78" style="edgeStyle=none;rounded=0;orthogonalLoop=1;jettySize=auto;html=1;exitX=0.5;exitY=1;exitDx=0;exitDy=0;entryX=0.5;entryY=0;entryDx=0;entryDy=0;fontSize=20;endArrow=none;endFill=0;" edge="1" parent="1" source="k7m_8FGUSV61DsyAJjcT-36" target="k7m_8FGUSV61DsyAJjcT-48">
          <mxGeometry relative="1" as="geometry" />
        </mxCell>
        <mxCell id="k7m_8FGUSV61DsyAJjcT-79" style="edgeStyle=none;rounded=0;orthogonalLoop=1;jettySize=auto;html=1;exitX=0.5;exitY=1;exitDx=0;exitDy=0;entryX=0.5;entryY=0;entryDx=0;entryDy=0;fontSize=20;endArrow=none;endFill=0;" edge="1" parent="1" source="k7m_8FGUSV61DsyAJjcT-36" target="k7m_8FGUSV61DsyAJjcT-44">
          <mxGeometry relative="1" as="geometry" />
        </mxCell>
        <mxCell id="k7m_8FGUSV61DsyAJjcT-36" value="&lt;span style=&quot;font-size: 20px;&quot;&gt;cd&lt;/span&gt;" style="rounded=1;whiteSpace=wrap;html=1;" vertex="1" parent="1">
          <mxGeometry x="584" y="320" width="54" height="40" as="geometry" />
        </mxCell>
        <mxCell id="k7m_8FGUSV61DsyAJjcT-37" value="&lt;font style=&quot;font-size: 20px;&quot;&gt;2&lt;/font&gt;" style="text;html=1;align=center;verticalAlign=middle;whiteSpace=wrap;rounded=0;fillColor=default;" vertex="1" parent="1">
          <mxGeometry x="574" y="310" width="26" height="20" as="geometry" />
        </mxCell>
        <mxCell id="k7m_8FGUSV61DsyAJjcT-82" style="edgeStyle=none;rounded=0;orthogonalLoop=1;jettySize=auto;html=1;exitX=0.5;exitY=1;exitDx=0;exitDy=0;entryX=0.5;entryY=0;entryDx=0;entryDy=0;fontSize=20;endArrow=none;endFill=0;" edge="1" parent="1" source="k7m_8FGUSV61DsyAJjcT-38" target="k7m_8FGUSV61DsyAJjcT-80">
          <mxGeometry relative="1" as="geometry" />
        </mxCell>
        <mxCell id="k7m_8FGUSV61DsyAJjcT-38" value="&lt;span style=&quot;font-size: 20px;&quot;&gt;abc&lt;/span&gt;" style="rounded=1;whiteSpace=wrap;html=1;" vertex="1" parent="1">
          <mxGeometry x="189" y="420" width="54" height="40" as="geometry" />
        </mxCell>
        <mxCell id="k7m_8FGUSV61DsyAJjcT-39" value="&lt;font style=&quot;font-size: 20px;&quot;&gt;1&lt;/font&gt;" style="text;html=1;align=center;verticalAlign=middle;whiteSpace=wrap;rounded=0;fillColor=default;" vertex="1" parent="1">
          <mxGeometry x="179" y="410" width="26" height="20" as="geometry" />
        </mxCell>
        <mxCell id="k7m_8FGUSV61DsyAJjcT-83" style="edgeStyle=none;rounded=0;orthogonalLoop=1;jettySize=auto;html=1;exitX=0.5;exitY=1;exitDx=0;exitDy=0;fontSize=20;endArrow=none;endFill=0;" edge="1" parent="1" source="k7m_8FGUSV61DsyAJjcT-40">
          <mxGeometry relative="1" as="geometry">
            <mxPoint x="360" y="520" as="targetPoint" />
          </mxGeometry>
        </mxCell>
        <mxCell id="k7m_8FGUSV61DsyAJjcT-40" value="&lt;span style=&quot;font-size: 20px;&quot;&gt;abd&lt;/span&gt;" style="rounded=1;whiteSpace=wrap;html=1;" vertex="1" parent="1">
          <mxGeometry x="291" y="420" width="54" height="40" as="geometry" />
        </mxCell>
        <mxCell id="k7m_8FGUSV61DsyAJjcT-41" value="&lt;font style=&quot;font-size: 20px;&quot;&gt;2&lt;/font&gt;" style="text;html=1;align=center;verticalAlign=middle;whiteSpace=wrap;rounded=0;fillColor=default;" vertex="1" parent="1">
          <mxGeometry x="281" y="410" width="26" height="20" as="geometry" />
        </mxCell>
        <mxCell id="k7m_8FGUSV61DsyAJjcT-85" style="edgeStyle=none;rounded=0;orthogonalLoop=1;jettySize=auto;html=1;exitX=0.5;exitY=1;exitDx=0;exitDy=0;entryX=0.5;entryY=0;entryDx=0;entryDy=0;fontSize=20;endArrow=none;endFill=0;" edge="1" parent="1" source="k7m_8FGUSV61DsyAJjcT-44" target="k7m_8FGUSV61DsyAJjcT-80">
          <mxGeometry relative="1" as="geometry" />
        </mxCell>
        <mxCell id="k7m_8FGUSV61DsyAJjcT-44" value="&lt;span style=&quot;font-size: 20px;&quot;&gt;bcd&lt;/span&gt;" style="rounded=1;whiteSpace=wrap;html=1;" vertex="1" parent="1">
          <mxGeometry x="484" y="420" width="54" height="40" as="geometry" />
        </mxCell>
        <mxCell id="k7m_8FGUSV61DsyAJjcT-45" value="&lt;font style=&quot;font-size: 20px;&quot;&gt;1&lt;/font&gt;" style="text;html=1;align=center;verticalAlign=middle;whiteSpace=wrap;rounded=0;fillColor=default;" vertex="1" parent="1">
          <mxGeometry x="474" y="410" width="24" height="20" as="geometry" />
        </mxCell>
        <mxCell id="k7m_8FGUSV61DsyAJjcT-71" style="edgeStyle=none;rounded=0;orthogonalLoop=1;jettySize=auto;html=1;exitX=0.5;exitY=0;exitDx=0;exitDy=0;fontSize=20;endArrow=none;endFill=0;" edge="1" parent="1" source="k7m_8FGUSV61DsyAJjcT-48">
          <mxGeometry relative="1" as="geometry">
            <mxPoint x="220" y="360" as="targetPoint" />
          </mxGeometry>
        </mxCell>
        <mxCell id="k7m_8FGUSV61DsyAJjcT-84" style="edgeStyle=none;rounded=0;orthogonalLoop=1;jettySize=auto;html=1;exitX=0.5;exitY=1;exitDx=0;exitDy=0;fontSize=20;endArrow=none;endFill=0;" edge="1" parent="1" source="k7m_8FGUSV61DsyAJjcT-48">
          <mxGeometry relative="1" as="geometry">
            <mxPoint x="360" y="520" as="targetPoint" />
          </mxGeometry>
        </mxCell>
        <mxCell id="k7m_8FGUSV61DsyAJjcT-48" value="&lt;span style=&quot;font-size: 20px;&quot;&gt;acd&lt;/span&gt;" style="rounded=1;whiteSpace=wrap;html=1;" vertex="1" parent="1">
          <mxGeometry x="393" y="420" width="54" height="40" as="geometry" />
        </mxCell>
        <mxCell id="k7m_8FGUSV61DsyAJjcT-49" value="&lt;font style=&quot;font-size: 20px;&quot;&gt;1&lt;/font&gt;" style="text;html=1;align=center;verticalAlign=middle;whiteSpace=wrap;rounded=0;fillColor=default;" vertex="1" parent="1">
          <mxGeometry x="383" y="410" width="24" height="20" as="geometry" />
        </mxCell>
        <mxCell id="k7m_8FGUSV61DsyAJjcT-80" value="&lt;span style=&quot;font-size: 20px;&quot;&gt;abcd&lt;/span&gt;" style="rounded=1;whiteSpace=wrap;html=1;" vertex="1" parent="1">
          <mxGeometry x="336" y="520" width="54" height="40" as="geometry" />
        </mxCell>
        <mxCell id="k7m_8FGUSV61DsyAJjcT-81" value="&lt;font style=&quot;font-size: 20px;&quot;&gt;1&lt;/font&gt;" style="text;html=1;align=center;verticalAlign=middle;whiteSpace=wrap;rounded=0;fillColor=default;" vertex="1" parent="1">
          <mxGeometry x="326" y="510" width="24" height="20" as="geometry" />
        </mxCell>
      </root>
    </mxGraphModel>
  </diagram>
</mxfile>
